<svg width="47" height="47" viewBox="0 0 47 47" fill="none" xmlns="http://www.w3.org/2000/svg">
<path d="M23.822 35.9836C25.0527 35.8994 26.273 35.7029 27.4679 35.3963C28.9436 35.8399 30.5012 35.9404 32.0218 35.6899C32.0824 35.6825 32.1434 35.678 32.2045 35.6763C32.747 35.6763 33.4587 35.9874 34.497 36.6427V35.5655C34.4975 35.3778 34.5482 35.1937 34.644 35.0323C34.7397 34.8709 34.877 34.7381 35.0415 34.6477C35.4939 34.3924 35.9119 34.1052 36.2956 33.7863C37.8084 32.5224 38.662 30.8347 38.662 29.0497C38.662 28.4605 38.5687 27.8733 38.384 27.3133C38.8429 26.4694 39.2084 25.5886 39.4806 24.6708C40.3556 25.9638 40.8262 27.4902 40.832 29.0497C40.832 31.4763 39.6887 33.7397 37.7073 35.3944C37.3755 35.6705 37.0287 35.9246 36.667 36.1566V38.6805C36.667 39.5477 35.652 40.0474 34.9365 39.5302C34.2585 39.0313 33.5577 38.5642 32.8365 38.1302C32.6281 38.0101 32.4125 37.9029 32.1909 37.8094C31.589 37.8985 30.9813 37.9433 30.3729 37.9436C27.9034 37.9436 25.6206 37.2105 23.822 35.9836ZM10.7534 30.9377C7.63453 28.3263 5.83203 24.7661 5.83203 20.9511C5.83203 13.1577 13.2831 6.92578 22.3812 6.92578C31.4812 6.92578 38.9343 13.1558 38.9343 20.9511C38.9343 28.7444 31.4812 34.9744 22.3812 34.9744C21.3584 34.9744 20.3506 34.8966 19.3576 34.7411C18.9298 34.8402 17.2148 35.8455 14.7454 37.6247C13.8509 38.2702 12.5831 37.648 12.5831 36.5611V32.258C11.9427 31.8621 11.3318 31.4202 10.7554 30.9358M19.4179 32.0869C19.4931 32.0869 19.5689 32.0927 19.6454 32.1044C20.5398 32.2522 21.4518 32.3267 22.3812 32.328C30.0676 32.328 36.2179 27.1849 36.2179 20.9491C36.2179 14.7152 30.0676 9.57217 22.3831 9.57217C14.6987 9.57217 8.54453 14.7191 8.54453 20.9511C8.54453 23.9649 9.98342 26.8038 12.5229 28.9291C13.1632 29.4632 13.8606 29.9428 14.6151 30.368C14.8197 30.4816 14.9906 30.6475 15.1101 30.8487C15.2297 31.0499 15.2937 31.2792 15.2956 31.5133V33.9944C17.2498 32.7013 18.5351 32.0869 19.4179 32.0869Z" fill="#153520"/>
<path d="M15.6758 23.332C16.2559 23.332 16.8123 23.1016 17.2226 22.6913C17.6328 22.2811 17.8633 21.7247 17.8633 21.1445C17.8633 20.5644 17.6328 20.008 17.2226 19.5977C16.8123 19.1875 16.2559 18.957 15.6758 18.957C15.0956 18.957 14.5392 19.1875 14.129 19.5977C13.7187 20.008 13.4883 20.5644 13.4883 21.1445C13.4883 21.7247 13.7187 22.2811 14.129 22.6913C14.5392 23.1016 15.0956 23.332 15.6758 23.332ZM22.7866 23.332C23.3668 23.332 23.9232 23.1016 24.3334 22.6913C24.7436 22.2811 24.9741 21.7247 24.9741 21.1445C24.9741 20.5644 24.7436 20.008 24.3334 19.5977C23.9232 19.1875 23.3668 18.957 22.7866 18.957C22.2065 18.957 21.6501 19.1875 21.2398 19.5977C20.8296 20.008 20.5991 20.5644 20.5991 21.1445C20.5991 21.7247 20.8296 22.2811 21.2398 22.6913C21.6501 23.1016 22.2065 23.332 22.7866 23.332ZM29.8955 23.332C30.4757 23.332 31.0321 23.1016 31.4423 22.6913C31.8525 22.2811 32.083 21.7247 32.083 21.1445C32.083 20.5644 31.8525 20.008 31.4423 19.5977C31.0321 19.1875 30.4757 18.957 29.8955 18.957C29.3153 18.957 28.7589 19.1875 28.3487 19.5977C27.9385 20.008 27.708 20.5644 27.708 21.1445C27.708 21.7247 27.9385 22.2811 28.3487 22.6913C28.7589 23.1016 29.3153 23.332 29.8955 23.332Z" fill="#153520"/>
</svg>
