<svg width="38" height="38" viewBox="0 0 38 38" fill="none" xmlns="http://www.w3.org/2000/svg">
<path opacity="0.5" d="M7.78906 28.0391H29.5968" stroke="white" stroke-width="2.33654" stroke-linecap="round" stroke-linejoin="round"/>
<path d="M7.79026 22.718C5.03954 21.5161 3.11719 18.7713 3.11719 15.5775C3.11719 11.2761 6.60421 7.78906 10.9056 7.78906C11.2959 7.78906 11.6794 7.81776 12.0542 7.87316" stroke="white" stroke-width="2.33654" stroke-linecap="round"/>
<path d="M29.5968 22.7168V28.0379C29.5968 30.9751 29.5968 32.4438 28.6843 33.3561C27.7718 34.2686 26.3032 34.2686 23.366 34.2686H14.0198C11.0826 34.2686 9.61401 34.2686 8.70154 33.3561C7.78906 32.4438 7.78906 30.9751 7.78906 28.0379V22.7168" stroke="white" stroke-width="2.33654" stroke-linecap="round"/>
<path d="M25.3359 7.87316C25.7107 7.81776 26.0942 7.78906 26.4846 7.78906C30.786 7.78906 34.273 11.2761 34.273 15.5775C34.273 18.7713 32.3507 21.5161 29.6 22.718" stroke="white" stroke-width="2.33654" stroke-linecap="round"/>
<path d="M25.7028 10.9037V10.1249C25.7028 9.33691 25.5728 8.57934 25.333 7.87241C24.395 5.10606 21.7765 3.11523 18.6932 3.11523C15.6099 3.11523 12.9915 5.10606 12.0533 7.87241C11.8136 8.57934 11.6836 9.33691 11.6836 10.1249V10.9037" stroke="white" stroke-width="2.33654" stroke-linecap="round"/>
</svg>
